<mxfile host="app.diagrams.net" agent="Mozilla/5.0 (Macintosh; Intel Mac OS X 10_15_7) AppleWebKit/537.36 (KHTML, like Gecko) Chrome/128.0.0.0 Safari/537.36" version="24.7.17">
  <diagram name="Page-1" id="jTVHAC9JBCU1bFxEpmyo">
    <mxGraphModel grid="1" page="1" gridSize="10" guides="1" tooltips="1" connect="1" arrows="1" fold="1" pageScale="1" pageWidth="850" pageHeight="1100" math="0" shadow="0">
      <root>
        <mxCell id="0" />
        <mxCell id="1" parent="0" />
        <mxCell id="6gUhXf2JrYbX3I1vUDCX-2" value="Waste collection" style="swimlane;whiteSpace=wrap;html=1;" vertex="1" parent="1">
          <mxGeometry x="80" y="100" width="200" height="260" as="geometry" />
        </mxCell>
        <mxCell id="6gUhXf2JrYbX3I1vUDCX-5" value="String pk" style="text;html=1;align=center;verticalAlign=middle;resizable=0;points=[];autosize=1;strokeColor=none;fillColor=none;" vertex="1" parent="6gUhXf2JrYbX3I1vUDCX-2">
          <mxGeometry x="130" y="28" width="70" height="30" as="geometry" />
        </mxCell>
        <mxCell id="6gUhXf2JrYbX3I1vUDCX-12" value="Vechicle id" style="text;html=1;align=center;verticalAlign=middle;resizable=0;points=[];autosize=1;strokeColor=none;fillColor=none;" vertex="1" parent="6gUhXf2JrYbX3I1vUDCX-2">
          <mxGeometry x="-5" y="58" width="80" height="30" as="geometry" />
        </mxCell>
        <mxCell id="6gUhXf2JrYbX3I1vUDCX-16" value="String" style="text;html=1;align=center;verticalAlign=middle;resizable=0;points=[];autosize=1;strokeColor=none;fillColor=none;" vertex="1" parent="6gUhXf2JrYbX3I1vUDCX-2">
          <mxGeometry x="130" y="58" width="50" height="30" as="geometry" />
        </mxCell>
        <mxCell id="6gUhXf2JrYbX3I1vUDCX-17" value="Date" style="text;html=1;align=center;verticalAlign=middle;resizable=0;points=[];autosize=1;strokeColor=none;fillColor=none;" vertex="1" parent="6gUhXf2JrYbX3I1vUDCX-2">
          <mxGeometry y="100" width="50" height="30" as="geometry" />
        </mxCell>
        <mxCell id="6gUhXf2JrYbX3I1vUDCX-19" value="employee_id" style="text;html=1;align=center;verticalAlign=middle;resizable=0;points=[];autosize=1;strokeColor=none;fillColor=none;" vertex="1" parent="6gUhXf2JrYbX3I1vUDCX-2">
          <mxGeometry x="-5" y="130" width="90" height="30" as="geometry" />
        </mxCell>
        <mxCell id="6gUhXf2JrYbX3I1vUDCX-20" value="string" style="text;html=1;align=center;verticalAlign=middle;resizable=0;points=[];autosize=1;strokeColor=none;fillColor=none;" vertex="1" parent="6gUhXf2JrYbX3I1vUDCX-2">
          <mxGeometry x="135" y="130" width="50" height="30" as="geometry" />
        </mxCell>
        <mxCell id="6gUhXf2JrYbX3I1vUDCX-21" value="waste_type" style="text;html=1;align=center;verticalAlign=middle;resizable=0;points=[];autosize=1;strokeColor=none;fillColor=none;" vertex="1" parent="6gUhXf2JrYbX3I1vUDCX-2">
          <mxGeometry x="-5" y="160" width="80" height="30" as="geometry" />
        </mxCell>
        <mxCell id="6gUhXf2JrYbX3I1vUDCX-23" value="string" style="text;html=1;align=center;verticalAlign=middle;resizable=0;points=[];autosize=1;strokeColor=none;fillColor=none;" vertex="1" parent="6gUhXf2JrYbX3I1vUDCX-2">
          <mxGeometry x="135" y="160" width="50" height="30" as="geometry" />
        </mxCell>
        <mxCell id="6gUhXf2JrYbX3I1vUDCX-24" value="quantity" style="text;html=1;align=center;verticalAlign=middle;resizable=0;points=[];autosize=1;strokeColor=none;fillColor=none;" vertex="1" parent="6gUhXf2JrYbX3I1vUDCX-2">
          <mxGeometry x="-5" y="190" width="70" height="30" as="geometry" />
        </mxCell>
        <mxCell id="6gUhXf2JrYbX3I1vUDCX-25" value="number" style="text;html=1;align=center;verticalAlign=middle;resizable=0;points=[];autosize=1;strokeColor=none;fillColor=none;" vertex="1" parent="6gUhXf2JrYbX3I1vUDCX-2">
          <mxGeometry x="135" y="190" width="60" height="30" as="geometry" />
        </mxCell>
        <mxCell id="6gUhXf2JrYbX3I1vUDCX-30" value="disposal_site_id" style="text;html=1;align=center;verticalAlign=middle;resizable=0;points=[];autosize=1;strokeColor=none;fillColor=none;" vertex="1" parent="6gUhXf2JrYbX3I1vUDCX-2">
          <mxGeometry x="-5" y="220" width="110" height="30" as="geometry" />
        </mxCell>
        <mxCell id="6gUhXf2JrYbX3I1vUDCX-18" value="Time stamp" style="text;html=1;align=center;verticalAlign=middle;resizable=0;points=[];autosize=1;strokeColor=none;fillColor=none;" vertex="1" parent="6gUhXf2JrYbX3I1vUDCX-2">
          <mxGeometry x="115" y="100" width="90" height="30" as="geometry" />
        </mxCell>
        <mxCell id="6gUhXf2JrYbX3I1vUDCX-11" value="id" style="text;html=1;align=center;verticalAlign=middle;resizable=0;points=[];autosize=1;strokeColor=none;fillColor=none;" vertex="1" parent="6gUhXf2JrYbX3I1vUDCX-2">
          <mxGeometry x="10" y="28" width="30" height="30" as="geometry" />
        </mxCell>
        <mxCell id="6gUhXf2JrYbX3I1vUDCX-3" value="Vehicles" style="swimlane;whiteSpace=wrap;html=1;" vertex="1" parent="1">
          <mxGeometry x="440" y="90" width="200" height="170" as="geometry" />
        </mxCell>
        <mxCell id="6gUhXf2JrYbX3I1vUDCX-34" value="string pk" style="text;html=1;align=center;verticalAlign=middle;resizable=0;points=[];autosize=1;strokeColor=none;fillColor=none;" vertex="1" parent="6gUhXf2JrYbX3I1vUDCX-3">
          <mxGeometry x="125" y="28" width="70" height="30" as="geometry" />
        </mxCell>
        <mxCell id="6gUhXf2JrYbX3I1vUDCX-35" value="license_plate" style="text;html=1;align=center;verticalAlign=middle;resizable=0;points=[];autosize=1;strokeColor=none;fillColor=none;" vertex="1" parent="6gUhXf2JrYbX3I1vUDCX-3">
          <mxGeometry y="58" width="90" height="30" as="geometry" />
        </mxCell>
        <mxCell id="6gUhXf2JrYbX3I1vUDCX-37" value="string" style="text;html=1;align=center;verticalAlign=middle;resizable=0;points=[];autosize=1;strokeColor=none;fillColor=none;" vertex="1" parent="6gUhXf2JrYbX3I1vUDCX-3">
          <mxGeometry x="140" y="58" width="50" height="30" as="geometry" />
        </mxCell>
        <mxCell id="6gUhXf2JrYbX3I1vUDCX-38" value="model" style="text;html=1;align=center;verticalAlign=middle;resizable=0;points=[];autosize=1;strokeColor=none;fillColor=none;" vertex="1" parent="6gUhXf2JrYbX3I1vUDCX-3">
          <mxGeometry y="88" width="60" height="30" as="geometry" />
        </mxCell>
        <mxCell id="6gUhXf2JrYbX3I1vUDCX-39" value="capacity" style="text;html=1;align=center;verticalAlign=middle;resizable=0;points=[];autosize=1;strokeColor=none;fillColor=none;" vertex="1" parent="6gUhXf2JrYbX3I1vUDCX-3">
          <mxGeometry x="-5" y="118" width="70" height="30" as="geometry" />
        </mxCell>
        <mxCell id="6gUhXf2JrYbX3I1vUDCX-40" value="string" style="text;html=1;align=center;verticalAlign=middle;resizable=0;points=[];autosize=1;strokeColor=none;fillColor=none;" vertex="1" parent="6gUhXf2JrYbX3I1vUDCX-3">
          <mxGeometry x="135" y="88" width="50" height="30" as="geometry" />
        </mxCell>
        <mxCell id="6gUhXf2JrYbX3I1vUDCX-41" value="number" style="text;html=1;align=center;verticalAlign=middle;resizable=0;points=[];autosize=1;strokeColor=none;fillColor=none;" vertex="1" parent="6gUhXf2JrYbX3I1vUDCX-3">
          <mxGeometry x="125" y="118" width="60" height="30" as="geometry" />
        </mxCell>
        <mxCell id="6gUhXf2JrYbX3I1vUDCX-98" value="current_load" style="text;html=1;align=center;verticalAlign=middle;resizable=0;points=[];autosize=1;strokeColor=none;fillColor=none;" vertex="1" parent="6gUhXf2JrYbX3I1vUDCX-3">
          <mxGeometry x="-5" y="140" width="90" height="30" as="geometry" />
        </mxCell>
        <mxCell id="6gUhXf2JrYbX3I1vUDCX-32" value="string" style="text;html=1;align=center;verticalAlign=middle;resizable=0;points=[];autosize=1;strokeColor=none;fillColor=none;" vertex="1" parent="1">
          <mxGeometry x="205" y="318" width="50" height="30" as="geometry" />
        </mxCell>
        <mxCell id="6gUhXf2JrYbX3I1vUDCX-42" value="employee" style="swimlane;whiteSpace=wrap;html=1;" vertex="1" parent="1">
          <mxGeometry x="440" y="280" width="190" height="152" as="geometry" />
        </mxCell>
        <mxCell id="6gUhXf2JrYbX3I1vUDCX-43" value="id" style="text;html=1;align=center;verticalAlign=middle;resizable=0;points=[];autosize=1;strokeColor=none;fillColor=none;" vertex="1" parent="6gUhXf2JrYbX3I1vUDCX-42">
          <mxGeometry y="20" width="30" height="30" as="geometry" />
        </mxCell>
        <mxCell id="6gUhXf2JrYbX3I1vUDCX-44" value="string pk" style="text;html=1;align=center;verticalAlign=middle;resizable=0;points=[];autosize=1;strokeColor=none;fillColor=none;" vertex="1" parent="6gUhXf2JrYbX3I1vUDCX-42">
          <mxGeometry x="125" y="20" width="70" height="30" as="geometry" />
        </mxCell>
        <mxCell id="6gUhXf2JrYbX3I1vUDCX-45" value="name" style="text;html=1;align=center;verticalAlign=middle;resizable=0;points=[];autosize=1;strokeColor=none;fillColor=none;" vertex="1" parent="6gUhXf2JrYbX3I1vUDCX-42">
          <mxGeometry y="50" width="50" height="30" as="geometry" />
        </mxCell>
        <mxCell id="6gUhXf2JrYbX3I1vUDCX-46" value="string" style="text;html=1;align=center;verticalAlign=middle;resizable=0;points=[];autosize=1;strokeColor=none;fillColor=none;" vertex="1" parent="6gUhXf2JrYbX3I1vUDCX-42">
          <mxGeometry x="135" y="50" width="50" height="30" as="geometry" />
        </mxCell>
        <mxCell id="6gUhXf2JrYbX3I1vUDCX-47" value="role" style="text;html=1;align=center;verticalAlign=middle;resizable=0;points=[];autosize=1;strokeColor=none;fillColor=none;" vertex="1" parent="6gUhXf2JrYbX3I1vUDCX-42">
          <mxGeometry x="5" y="80" width="40" height="30" as="geometry" />
        </mxCell>
        <mxCell id="6gUhXf2JrYbX3I1vUDCX-48" value="string" style="text;html=1;align=center;verticalAlign=middle;resizable=0;points=[];autosize=1;strokeColor=none;fillColor=none;" vertex="1" parent="6gUhXf2JrYbX3I1vUDCX-42">
          <mxGeometry x="140" y="80" width="50" height="30" as="geometry" />
        </mxCell>
        <mxCell id="6gUhXf2JrYbX3I1vUDCX-49" value="contact_info" style="text;html=1;align=center;verticalAlign=middle;resizable=0;points=[];autosize=1;strokeColor=none;fillColor=none;" vertex="1" parent="6gUhXf2JrYbX3I1vUDCX-42">
          <mxGeometry x="-5" y="102" width="90" height="30" as="geometry" />
        </mxCell>
        <mxCell id="6gUhXf2JrYbX3I1vUDCX-50" value="string" style="text;html=1;align=center;verticalAlign=middle;resizable=0;points=[];autosize=1;strokeColor=none;fillColor=none;" vertex="1" parent="6gUhXf2JrYbX3I1vUDCX-42">
          <mxGeometry x="135" y="102" width="50" height="30" as="geometry" />
        </mxCell>
        <mxCell id="6gUhXf2JrYbX3I1vUDCX-97" value="shift" style="text;html=1;align=center;verticalAlign=middle;resizable=0;points=[];autosize=1;strokeColor=none;fillColor=none;" vertex="1" parent="6gUhXf2JrYbX3I1vUDCX-42">
          <mxGeometry y="122" width="50" height="30" as="geometry" />
        </mxCell>
        <mxCell id="6gUhXf2JrYbX3I1vUDCX-51" value="disposal waste" style="swimlane;startSize=20;" vertex="1" parent="1">
          <mxGeometry x="440" y="460" width="200" height="170" as="geometry" />
        </mxCell>
        <mxCell id="6gUhXf2JrYbX3I1vUDCX-54" value="location" style="text;html=1;align=center;verticalAlign=middle;resizable=0;points=[];autosize=1;strokeColor=none;fillColor=none;" vertex="1" parent="6gUhXf2JrYbX3I1vUDCX-51">
          <mxGeometry x="5" y="50" width="60" height="30" as="geometry" />
        </mxCell>
        <mxCell id="6gUhXf2JrYbX3I1vUDCX-56" value="capacity" style="text;html=1;align=center;verticalAlign=middle;resizable=0;points=[];autosize=1;strokeColor=none;fillColor=none;" vertex="1" parent="6gUhXf2JrYbX3I1vUDCX-51">
          <mxGeometry y="80" width="70" height="30" as="geometry" />
        </mxCell>
        <mxCell id="6gUhXf2JrYbX3I1vUDCX-57" value="type" style="text;html=1;align=center;verticalAlign=middle;resizable=0;points=[];autosize=1;strokeColor=none;fillColor=none;" vertex="1" parent="6gUhXf2JrYbX3I1vUDCX-51">
          <mxGeometry y="110" width="50" height="30" as="geometry" />
        </mxCell>
        <mxCell id="6gUhXf2JrYbX3I1vUDCX-53" value="string pk" style="text;html=1;align=center;verticalAlign=middle;resizable=0;points=[];autosize=1;strokeColor=none;fillColor=none;" vertex="1" parent="6gUhXf2JrYbX3I1vUDCX-51">
          <mxGeometry x="130" y="20" width="70" height="30" as="geometry" />
        </mxCell>
        <mxCell id="6gUhXf2JrYbX3I1vUDCX-52" value="id" style="text;html=1;align=center;verticalAlign=middle;resizable=0;points=[];autosize=1;strokeColor=none;fillColor=none;" vertex="1" parent="6gUhXf2JrYbX3I1vUDCX-51">
          <mxGeometry y="20" width="30" height="30" as="geometry" />
        </mxCell>
        <mxCell id="6gUhXf2JrYbX3I1vUDCX-60" value="string" style="text;html=1;align=center;verticalAlign=middle;resizable=0;points=[];autosize=1;strokeColor=none;fillColor=none;" vertex="1" parent="6gUhXf2JrYbX3I1vUDCX-51">
          <mxGeometry x="140" y="50" width="50" height="30" as="geometry" />
        </mxCell>
        <mxCell id="6gUhXf2JrYbX3I1vUDCX-58" value="string" style="text;html=1;align=center;verticalAlign=middle;resizable=0;points=[];autosize=1;strokeColor=none;fillColor=none;" vertex="1" parent="6gUhXf2JrYbX3I1vUDCX-51">
          <mxGeometry x="135" y="110" width="50" height="30" as="geometry" />
        </mxCell>
        <mxCell id="6gUhXf2JrYbX3I1vUDCX-61" value="number" style="text;html=1;align=center;verticalAlign=middle;resizable=0;points=[];autosize=1;strokeColor=none;fillColor=none;" vertex="1" parent="6gUhXf2JrYbX3I1vUDCX-51">
          <mxGeometry x="135" y="80" width="60" height="30" as="geometry" />
        </mxCell>
        <mxCell id="6gUhXf2JrYbX3I1vUDCX-95" value="current waste_amount" style="text;html=1;align=center;verticalAlign=middle;resizable=0;points=[];autosize=1;strokeColor=none;fillColor=none;" vertex="1" parent="6gUhXf2JrYbX3I1vUDCX-51">
          <mxGeometry y="140" width="140" height="30" as="geometry" />
        </mxCell>
        <mxCell id="6gUhXf2JrYbX3I1vUDCX-62" value="" style="edgeStyle=elbowEdgeStyle;elbow=horizontal;endArrow=classic;html=1;curved=0;rounded=0;endSize=8;startSize=8;exitX=-0.011;exitY=-0.067;exitDx=0;exitDy=0;exitPerimeter=0;" edge="1" parent="1" source="6gUhXf2JrYbX3I1vUDCX-35">
          <mxGeometry width="50" height="50" relative="1" as="geometry">
            <mxPoint x="425.99" y="136.99" as="sourcePoint" />
            <mxPoint x="280" y="260" as="targetPoint" />
            <Array as="points" />
          </mxGeometry>
        </mxCell>
        <mxCell id="6gUhXf2JrYbX3I1vUDCX-66" value="" style="endArrow=none;html=1;rounded=0;" edge="1" parent="1">
          <mxGeometry width="50" height="50" relative="1" as="geometry">
            <mxPoint x="276" y="320" as="sourcePoint" />
            <mxPoint x="440" y="320" as="targetPoint" />
          </mxGeometry>
        </mxCell>
        <mxCell id="6gUhXf2JrYbX3I1vUDCX-68" value="id" style="text;html=1;align=center;verticalAlign=middle;resizable=0;points=[];autosize=1;strokeColor=none;fillColor=none;" vertex="1" parent="1">
          <mxGeometry x="455" y="118" width="30" height="30" as="geometry" />
        </mxCell>
        <mxCell id="6gUhXf2JrYbX3I1vUDCX-74" value="" style="edgeStyle=elbowEdgeStyle;elbow=horizontal;endArrow=classic;html=1;curved=0;rounded=0;endSize=8;startSize=8;" edge="1" parent="1">
          <mxGeometry width="50" height="50" relative="1" as="geometry">
            <mxPoint x="440" y="516" as="sourcePoint" />
            <mxPoint x="440" y="516" as="targetPoint" />
          </mxGeometry>
        </mxCell>
        <mxCell id="6gUhXf2JrYbX3I1vUDCX-75" value="1" style="text;html=1;align=center;verticalAlign=middle;resizable=0;points=[];autosize=1;strokeColor=none;fillColor=none;" vertex="1" parent="1">
          <mxGeometry x="415" y="128" width="30" height="30" as="geometry" />
        </mxCell>
        <mxCell id="6gUhXf2JrYbX3I1vUDCX-76" value="1" style="text;html=1;align=center;verticalAlign=middle;resizable=0;points=[];autosize=1;strokeColor=none;fillColor=none;" vertex="1" parent="1">
          <mxGeometry x="425" y="280" width="30" height="30" as="geometry" />
        </mxCell>
        <mxCell id="6gUhXf2JrYbX3I1vUDCX-78" value="" style="edgeStyle=elbowEdgeStyle;elbow=horizontal;endArrow=classic;html=1;curved=0;rounded=0;endSize=8;startSize=8;" edge="1" parent="1">
          <mxGeometry width="50" height="50" relative="1" as="geometry">
            <mxPoint x="280" y="350" as="sourcePoint" />
            <mxPoint x="440" y="520" as="targetPoint" />
          </mxGeometry>
        </mxCell>
        <mxCell id="6gUhXf2JrYbX3I1vUDCX-80" value="1" style="text;html=1;align=center;verticalAlign=middle;resizable=0;points=[];autosize=1;strokeColor=none;fillColor=none;" vertex="1" parent="1">
          <mxGeometry x="405" y="498" width="30" height="30" as="geometry" />
        </mxCell>
        <mxCell id="6gUhXf2JrYbX3I1vUDCX-81" value="CLASS DIAGRAM FOR WASTE MANAGEMENT SYSTEM" style="text;html=1;align=center;verticalAlign=middle;resizable=0;points=[];autosize=1;strokeColor=none;fillColor=none;" vertex="1" parent="1">
          <mxGeometry x="35" y="50" width="340" height="30" as="geometry" />
        </mxCell>
        <mxCell id="6gUhXf2JrYbX3I1vUDCX-86" value="Treatment facility" style="swimlane;" vertex="1" parent="1">
          <mxGeometry x="435" y="660" width="200" height="140" as="geometry" />
        </mxCell>
        <mxCell id="6gUhXf2JrYbX3I1vUDCX-87" value="method&amp;nbsp; id" style="text;html=1;align=center;verticalAlign=middle;resizable=0;points=[];autosize=1;strokeColor=none;fillColor=none;" vertex="1" parent="6gUhXf2JrYbX3I1vUDCX-86">
          <mxGeometry x="5" y="30" width="80" height="30" as="geometry" />
        </mxCell>
        <mxCell id="6gUhXf2JrYbX3I1vUDCX-88" value="method_name" style="text;html=1;align=center;verticalAlign=middle;resizable=0;points=[];autosize=1;strokeColor=none;fillColor=none;" vertex="1" parent="6gUhXf2JrYbX3I1vUDCX-86">
          <mxGeometry x="5" y="68" width="100" height="30" as="geometry" />
        </mxCell>
        <mxCell id="6gUhXf2JrYbX3I1vUDCX-89" value="cost" style="text;html=1;align=center;verticalAlign=middle;resizable=0;points=[];autosize=1;strokeColor=none;fillColor=none;" vertex="1" parent="6gUhXf2JrYbX3I1vUDCX-86">
          <mxGeometry x="5" y="108" width="50" height="30" as="geometry" />
        </mxCell>
        <mxCell id="6gUhXf2JrYbX3I1vUDCX-90" value="type" style="text;html=1;align=center;verticalAlign=middle;resizable=0;points=[];autosize=1;strokeColor=none;fillColor=none;" vertex="1" parent="6gUhXf2JrYbX3I1vUDCX-86">
          <mxGeometry y="-10" width="50" height="30" as="geometry" />
        </mxCell>
        <mxCell id="6gUhXf2JrYbX3I1vUDCX-99" value="" style="endArrow=classic;html=1;rounded=0;exitX=0.586;exitY=0.967;exitDx=0;exitDy=0;exitPerimeter=0;entryX=0.43;entryY=0.014;entryDx=0;entryDy=0;entryPerimeter=0;" edge="1" parent="1" source="6gUhXf2JrYbX3I1vUDCX-95" target="6gUhXf2JrYbX3I1vUDCX-86">
          <mxGeometry width="50" height="50" relative="1" as="geometry">
            <mxPoint x="240" y="610" as="sourcePoint" />
            <mxPoint x="513" y="650" as="targetPoint" />
          </mxGeometry>
        </mxCell>
      </root>
    </mxGraphModel>
  </diagram>
</mxfile>
